<?xml version="1.0" encoding="utf-8"?>
<svg id="master-artboard" viewBox="0 0 923.5294799804688 924.7058715820312" version="1.1" xmlns="http://www.w3.org/2000/svg" x="0px" y="0px" style="enable-background:new 0 0 1400 980;" width="923.5294799804688px" height="924.7058715820312px"><g transform="matrix(38.48039754231771, 0, 0, 38.48039754231771, 0, 0.5881652832031534)"><path d="M12 0c-6.627 0-12 5.373-12 12s5.373 12 12 12 12-5.373 12-12-5.373-12-12-12zm-2 16h-2v-6h2v6zm-1-6.891c-.607 0-1.1-.496-1.1-1.109 0-.612.492-1.109 1.1-1.109s1.1.497 1.1 1.109c0 .613-.493 1.109-1.1 1.109zm8 6.891h-1.998v-2.861c0-1.881-2.002-1.722-2.002 0v2.861h-2v-6h2v1.093c.872-1.616 4-1.736 4 1.548v3.359z" style="fill: rgb(255, 255, 255);"/></g></svg>