<?xml version="1.0" encoding="utf-8"?>
<svg id="master-artboard" viewBox="0 0 983.334228515625 980" version="1.1" xmlns="http://www.w3.org/2000/svg" x="0px" y="0px" style="enable-background:new 0 0 1400 980;" width="983.334228515625px" height="980px"><g transform="matrix(1.3540310859680176, 1.3540310859680176, -1.3540310859680176, 1.3540310859680176, 491.6668395996094, -202.9644775390625)"><path d="m436.79 74.989c-99.978-99.978-261.809-99.992-361.801 0-99.979 99.979-99.992 261.809 0 361.801 99.978 99.978 261.809 99.992 361.801 0 99.978-99.979 99.992-261.809 0-361.801zm-27.656 307.426c-29.602 29.602-77.517 29.607-107.123 0l-148.546-148.544c-9.123-9.123-14.146-21.251-14.146-34.152 0-42.924 52.227-64.371 82.449-34.152l142.902 142.901c6.249 6.249 6.249 16.379 0 22.627-6.248 6.249-16.379 6.249-22.627 0l-142.902-142.901c-10.203-10.203-27.822-2.955-27.822 11.524 0 4.354 1.695 8.446 4.773 11.524l148.545 148.545c17.059 17.058 44.811 17.058 61.869 0 17.057-17.057 17.057-44.812 0-61.87l-154.055-154.055c-27.406-27.406-71.999-27.406-99.405 0-27.405 27.406-27.405 71.999 0 99.404l149.923 149.924c10.109 10.108 2.813 27.314-11.313 27.314-4.095 0-8.189-1.562-11.313-4.687l-149.924-149.923c-39.974-39.973-39.981-104.679 0-144.659 39.883-39.882 104.776-39.882 144.659 0l154.056 154.057c29.534 29.533 29.534 77.589 0 107.123z" style="fill: rgb(255, 255, 255);"/></g></svg>